/* XPM */
static char *bus-in[] = {
/* columns rows colors chars-per-pixel */
"13 9 3 1",
"  c black",
". c red",
"X c gray100",
/* pixels */
"XXXXX        ",
"XXXXX ...... ",
"XXXXX . .... ",
"XXXXXX..  .. ",
"           . ",
"XXXXXX..  .. ",
"XXXXX . .... ",
"XXXXX ...... ",
"XXXXX        "
};
