/* XPM */
static char * bus_out_xpm[] = {
"13 9 2 1",
" 	c None",
".	c #000000",
"             ",
"        .    ",
"        ..   ",
"        .... ",
" ............",
"        .... ",
"        ..   ",
"        .    ",
"             "};
