/* XPM */
static char * bus_out_xpm[] = {
"18 9 3 1",
" 	c None",
".	c #000000",
"+	c #00FF00",
"     ........     ",
"     .++++++.     ",
"     .++++++. .   ",
"     .++++++   .. ",
"     .++..........",
"     .++++++   .. ",
"     .++++++. .   ",
"     .++++++.     ",
"     ........     "};
