/* XPM */
static char * bus_in_xpm[] = {
"18 9 3 1",
" 	c None",
".	c #000000",
"+	c #FF0000",
"     ........     ",
"     .++++++.     ",
"     .+.++++.     ",
"      ++..++.     ",
"...........+.     ",
"      ++..++.     ",
"     .+.++++.     ",
"     .++++++.     ",
"     ........     "};
