/* XPM */
static char * bus_in_xpm[] = {
"13 9 2 1",
" 	c None",
".	c #000000",
"             ",
"       .     ",
"       ...   ",
"       ..... ",
".............",
"       ..... ",
"       ...   ",
"       .     ",
"             "};
