/* XPM */
static char *cursorDrag[]={
"32 32 2 1",
". c None",
"# c #000000",
"................................",
"................................",
"................................",
"................................",
"....................###########.",
"....................#.........#.",
"....................#.........#.",
"....................#.........#.",
"....................#.........#.",
"....................#.........#.",
".................#..###########.",
".................#..............",
"..............#..###########....",
"..............#.................",
"...........#..#.................",
"...........#..##########........",
".......#...#....................",
".......#...#########............",
".......#........................",
".......########.................",
"................................",
"..###########...................",
"..#.........#...................",
"..#.........#...................",
"..#.........#...................",
"..#.........#...................",
"..#.........#...................",
"..#.........#...................",
"..###########...................",
"................................",
"................................",
"................................"};
