/* XPM */
static char *cursorFloatOverFade[] = {
/* columns rows colors chars-per-pixel */
"32 49 41 1",
"  c #000000",
". c #050505",
"X c #0A0803",
"o c #090909",
"O c #0F0F0F",
"+ c #131005",
"@ c #151206",
"# c #141414",
"$ c #151515",
"% c #181716",
"& c #191919",
"* c #1E1E1E",
"= c #211C09",
"- c #322B0E",
"; c #483D14",
": c #4E4316",
"> c #67591D",
", c #6C5D1E",
"< c #4B4B4B",
"1 c #515151",
"2 c #575757",
"3 c #585858",
"4 c #5A5A5A",
"5 c #5C5C5C",
"6 c #99842A",
"7 c #B09832",
"8 c #BDA335",
"9 c #D8BA3D",
"0 c #DBBD3E",
"q c #DEBF3E",
"w c #E2C23F",
"e c #E3C440",
"r c #E4C440",
"t c #999999",
"y c #A4A4A4",
"u c #D6D6D6",
"i c #E0E0E0",
"p c #EDEDED",
"a c #F3F3F3",
"s c #FFFFFF",
"d c None",
/* pixels */
"dddddddddddddddddddddddddddddddd",
"dddddddddddddddddddddddddddddddd",
"dddddddddddddddddddddddddddddddd",
"dddddddddddddddddddddddddddddddd",
"dddddddddddddddddddddddddddddddd",
"dddddddddddddddddddddddddddddddd",
"dddddddddddddddddddddddddddddddd",
"dddddddddddddddddddddddddddddddd",
"dddddddddddddddddddddddddddddddd",
"dddddddddddddddddddddddddddddddd",
"dddddddddddddddddddddddddddddddd",
"dddddddddddddddddddddddddddddddd",
"dddddddddddddddddddddddddddddddd",
"dddddddddddddddddddddddddddddddd",
"dddddddddddddddddddddddddddddddd",
"dddddddddddddddddddddddddddddddd",
"dddddddddddddddddddddddddddddddd",
"dddddddddddddddddddddddddddddddd",
"dddddddddddddddddddddddddddddddd",
"dddddddddddddddddddddddddddddddd",
"dddddddddddddddddddddddddddddddd",
"dddddddddddddddddddddddddddddddd",
"dddddddddddddddddddddddddddddddd",
"dddddddddddddddddddddddddddddddd",
"ddddddddddddddssssdddddddddddddd",
"dddddddddddddds44sdddddddddddddd",
"ddddddddddddddaooadddddddddddddd",
"dddddddddddddsy  ysddddddddddddd",
"ddddddddddddds<  <sddddddddddddd",
"dddddddddddddp.  .pddddddddddddd",
"ddddddddddddst    tsdddddddddddd",
"dddddddddddds1    1sdddddddddddd",
"dddddddddddds$+@@@%sdddddddddddd",
"ddddddddddddu 9rrr=udddddddddddd",
"dddddddddddst 07;;Xtsddddddddddd",
"ddddddddddds5 08,> 5sddddddddddd",
"ddddddddddds* 0ewq *sddddddddddd",
"ddddddddddds& 06   &sddddddddddd",
"ddddddddddds4 06   4sddddddddddd",
"dddddddddddduO:-  Oidddddddddddd",
"ddddddddddddsi2$$2usdddddddddddd",
"ddddddddddddddssssdddddddddddddd",
"dddddddddddddddddddddddddddddddd",
"dddddddddddddddddddddddddddddddd",
"dddddddddddddddddddddddddddddddd",
"dddddddddddddddddddddddddddddddd",
"dddddddddddddddddddddddddddddddd",
"dddddddddddddddddddddddddddddddd",
"dddddddddddddddddddddddddddddddd"
};
