/* XPM */
static char *cursorFloatOverTrack[]={
"32 47 5 1",
". c None",
"a c #000000",
"c c #000040",
"b c #303030",
"# c #ffffff",
"................................",
"................................",
"................................",
"................................",
"................................",
"................................",
"................................",
"................................",
"................................",
"................................",
"................................",
"................................",
"................................",
"................................",
"................................",
"................................",
"................................",
"................................",
"................................",
"................................",
"................................",
"................................",
"................................",
"................#...............",
"...............#a#..............",
"...............#a#..............",
"...............#a#..............",
"...............#b#..............",
"..............#bba#.............",
"..............#bba#.............",
".............#babaa#............",
".............#baaaa#............",
"............#aaaaaaa#...........",
"...........#aaaaaaaaa#..........",
"..........#aaaaaaaaaaa#.........",
".........#aaa#######aaa#........",
"........#a####.....####a#.......",
"........##............##########",
"........................#aaaaaa#",
"........................#abaaaa#",
"........................###aa###",
"..........................#aa#..",
"..........................#aa#..",
"..........................#aa#..",
"..........................#aa#..",
"..........................#aa#..",
"..........................####..",
"................................"};
