/* XPM */
static char *cursorFloatOverSplitter[]={
"32 35 3 1",
". c None",
"a c #000000",
"# c #ffffff",
"................................",
"................................",
"................................",
"................................",
"................................",
"................................",
"................................",
"................................",
"................................",
"................................",
"................................",
"................................",
"................................",
"................................",
"................................",
"...........####..####...........",
"...........#aa#..#aa#...........",
"...........#aa#..#aa#...........",
"...........#aa#..#aa#...........",
"......#....#aa#..#aa#....#......",
".....##....#aa#..#aa#....##.....",
"....#a#....#aa#..#aa#....#a#....",
"...#aa######aa#..#aa######aa#...",
"..#aaaaaaaaaaa#..#aaaaaaaaaaa#..",
".#aaaaaaaaaaaa#..#aaaaaaaaaaaa#.",
"..#aaaaaaaaaaa#..#aaaaaaaaaaa#..",
"...#aa######aa#..#aa######aa#...",
"....#a#....#aa#..#aa#....#a#....",
".....##....#aa#..#aa#....##.....",
"......#....#aa#..#aa#....#......",
"...........#aa#..#aa#...........",
"...........#aa#..#aa#...........",
"...........#aa#..#aa#...........",
"...........####..####...........",
"................................"};
