/* XPM */
static char * cursorFloatOverClip_xpm[] = {
"33 51 5 1",
" 	c None",
".	c #FFFFFF",
"+	c #EBEBEB",
"@	c #000000",
"#	c #CBCBCB",
"                                 ",
"                                 ",
"                                 ",
"                                 ",
"                                 ",
"                                 ",
"                                 ",
"                                 ",
"                                 ",
"                                 ",
"                                 ",
"                                 ",
"                                 ",
"                                 ",
"                                 ",
"                                 ",
"                                 ",
"                                 ",
"                                 ",
"                                 ",
"                                 ",
"                                 ",
"                                 ",
"                                 ",
"                .                ",
"               .+.               ",
"               .@.               ",
"               .@.               ",
"               .@.               ",
"               #@#               ",
"              .@@@.              ",
"              .@@@..             ",
"             .@@@@@.             ",
"             .@@@@@.             ",
"            .@@@@@@@.            ",
"           .@@@@@@@@@.           ",
"          .@@@@@@@@@@@.          ",
"         .@@@.......@@@..        ",
"        .@.....    ....@........ ",
"        ...           .......... ",
"                        ...#@@#. ",
"                        ..#@..@. ",
"                        ..@..... ",
"                        ..@..... ",
"                        ..@..... ",
"                        ..@..... ",
"                        ..#@..@. ",
"                        ...#@@#. ",
"                        ........ ",
"                                 ",
"                                 "};
