/* XPM */
static char *cursorSelect[]={
"32 32 3 1",
". c None",
"# c #000000",
"a c #ffffff",
"................................",
"................................",
"................................",
"................................",
"................................",
"................................",
"................................",
"................................",
"................................",
"................................",
"................##..............",
"...............#..#.............",
"...............#..#.............",
"...............#a.#.............",
"...............#..#.............",
"...............#..#.............",
"...............#..#.##.##.......",
"...............#..##..#..#......",
".............#.#.........#......",
"............#.##.........#......",
"............#..#.........#......",
"............#..#.........#......",
"............#............#......",
".............#...........#......",
".............#...........#......",
"..............#..........#......",
"..............##........#.......",
"...............##.......#.......",
"................#########.......",
"................#.......#.......",
"................#.......#.......",
"................#.......#......."};
