/* XPM */
static char *cursorFloatOverPlugin[] = {
/* columns rows colors chars-per-pixel */
"32 49 44 1",
"  c #000000",
". c #020201",
"X c #060502",
"o c #050505",
"O c #0A0803",
"+ c #090909",
"@ c #0F0F0F",
"# c #120F05",
"$ c #151206",
"% c #141414",
"& c #151515",
"* c #191919",
"= c #1E1E1E",
"- c #362E0F",
"; c #483D14",
": c #493E15",
"> c #534717",
", c #6B5C1E",
"< c #776621",
"1 c #4B4B4B",
"2 c #515151",
"3 c #575757",
"4 c #585858",
"5 c #5A5A5A",
"6 c #5C5C5C",
"7 c #A58E2E",
"8 c #AE9631",
"9 c #AF9631",
"0 c #B39932",
"q c #B49A33",
"w c #B79E33",
"e c #CBAE39",
"r c #D0B33B",
"t c #E0C13E",
"y c #E2C23F",
"u c #E4C440",
"i c #999999",
"p c #A4A4A4",
"a c #D6D6D6",
"s c #E0E0E0",
"d c #EDEDED",
"f c #F3F3F3",
"g c #FFFFFF",
"h c None",
/* pixels */
"hhhhhhhhhhhhhhhhhhhhhhhhhhhhhhhh",
"hhhhhhhhhhhhhhhhhhhhhhhhhhhhhhhh",
"hhhhhhhhhhhhhhhhhhhhhhhhhhhhhhhh",
"hhhhhhhhhhhhhhhhhhhhhhhhhhhhhhhh",
"hhhhhhhhhhhhhhhhhhhhhhhhhhhhhhhh",
"hhhhhhhhhhhhhhhhhhhhhhhhhhhhhhhh",
"hhhhhhhhhhhhhhhhhhhhhhhhhhhhhhhh",
"hhhhhhhhhhhhhhhhhhhhhhhhhhhhhhhh",
"hhhhhhhhhhhhhhhhhhhhhhhhhhhhhhhh",
"hhhhhhhhhhhhhhhhhhhhhhhhhhhhhhhh",
"hhhhhhhhhhhhhhhhhhhhhhhhhhhhhhhh",
"hhhhhhhhhhhhhhhhhhhhhhhhhhhhhhhh",
"hhhhhhhhhhhhhhhhhhhhhhhhhhhhhhhh",
"hhhhhhhhhhhhhhhhhhhhhhhhhhhhhhhh",
"hhhhhhhhhhhhhhhhhhhhhhhhhhhhhhhh",
"hhhhhhhhhhhhhhhhhhhhhhhhhhhhhhhh",
"hhhhhhhhhhhhhhhhhhhhhhhhhhhhhhhh",
"hhhhhhhhhhhhhhhhhhhhhhhhhhhhhhhh",
"hhhhhhhhhhhhhhhhhhhhhhhhhhhhhhhh",
"hhhhhhhhhhhhhhhhhhhhhhhhhhhhhhhh",
"hhhhhhhhhhhhhhhhhhhhhhhhhhhhhhhh",
"hhhhhhhhhhhhhhhhhhhhhhhhhhhhhhhh",
"hhhhhhhhhhhhhhhhhhhhhhhhhhhhhhhh",
"hhhhhhhhhhhhhhhhhhhhhhhhhhhhhhhh",
"hhhhhhhhhhhhhhhgghhhhhhhhhhhhhhh",
"hhhhhhhhhhhhhhg55ghhhhhhhhhhhhhh",
"hhhhhhhhhhhhhhf++fhhhhhhhhhhhhhh",
"hhhhhhhhhhhhhhp  phhhhhhhhhhhhhh",
"hhhhhhhhhhhhhg1  1ghhhhhhhhhhhhh",
"hhhhhhhhhhhhhdo  odhhhhhhhhhhhhh",
"hhhhhhhhhhhhhi    ihhhhhhhhhhhhh",
"hhhhhhhhhhhhg2    2ghhhhhhhhhhhh",
"hhhhhhhhhhhhg&#$X &ghhhhhhhhhhhh",
"hhhhhhhhhhhha euyqXahhhhhhhhhhhh",
"hhhhhhhhhhhhi rw<u>ihhhhhhhhhhhh",
"hhhhhhhhhhhg6 rq,u;6ghhhhhhhhhhh",
"hhhhhhhhhhhg= ruy9 =ghhhhhhhhhhh",
"hhhhhhhhhhhg* r9O  *ghhhhhhhhhhh",
"hhhhhhhhhhhg5 r7   5ghhhhhhhhhhh",
"hhhhhhhhhhhha@;-  @shhhhhhhhhhhh",
"hhhhhhhhhhhhgs3&&3aghhhhhhhhhhhh",
"hhhhhhhhhhhhhhgggghhhhhhhhhhhhhh",
"hhhhhhhhhhhhhhhhhhhhhhhhhhhhhhhh",
"hhhhhhhhhhhhhhhhhhhhhhhhhhhhhhhh",
"hhhhhhhhhhhhhhhhhhhhhhhhhhhhhhhh",
"hhhhhhhhhhhhhhhhhhhhhhhhhhhhhhhh",
"hhhhhhhhhhhhhhhhhhhhhhhhhhhhhhhh",
"hhhhhhhhhhhhhhhhhhhhhhhhhhhhhhhh",
"hhhhhhhhhhhhhhhhhhhhhhhhhhhhhhhh"
};
