/* XPM */
static char * cursorFloatOverTrack_xpm[] = {
"33 51 6 1",
" 	c None",
".	c #FFFFFF",
"+	c #000000",
"@	c #010101",
"#	c #030303",
"$	c #090909",
"                                 ",
"                                 ",
"                                 ",
"                                 ",
"                                 ",
"                                 ",
"                                 ",
"                                 ",
"                                 ",
"                                 ",
"                                 ",
"                                 ",
"                                 ",
"                                 ",
"                                 ",
"                                 ",
"                                 ",
"                                 ",
"                                 ",
"                                 ",
"                                 ",
"                                 ",
"                                 ",
"                                 ",
"                                 ",
"                .                ",
"               .+.               ",
"               .+.               ",
"               .+.               ",
"               .+.               ",
"              .@++.              ",
"              .+++.              ",
"             .#++++.             ",
"             .+++++.             ",
"            .+++++++.            ",
"           .+++++++++.           ",
"          .+++++++++++.          ",
"         .+++.......+++.         ",
"        .+....     ....+.        ",
"        ..            .......... ",
"                        .++++++. ",
"                        .+$++++. ",
"                        ...++... ",
"                          .++.   ",
"                          .++.   ",
"                          .++.   ",
"                          .++.   ",
"                          .++.   ",
"                          ....   ",
"                                 ",
"                                 "};
