/* XPM */
static char *dummy[]={
"32 32 3 1",
". c None",
"# c #000000",
"a c #ffffff",
"................#...............",
"...............#a#..............",
"..............#aaa#.............",
".............#.#a#.#............",
"...............#a#..............",
"...............#a#..............",
"...............#a#..............",
"................................",
"................................",
"................####............",
"..............##aaaa##..........",
"..............#aaaaaa#..........",
"...#.........#aaaaaaaa#.....#...",
"..#..........#aaaaaaaa#......#..",
".#a####......#aaaaaaaa#..####a#.",
"#aaaaaa......#aaaaaaaa#..aaaaaa#",
".#a####......##aaaaaa#...####a#.",
"..#.........#a##aaaa##.......#..",
"...#.......#a#a#####........#...",
"..........#a#a#.................",
".........#a#a#..................",
".........##a#...................",
"..........##....................",
"................................",
"................................",
"...............#a#..............",
"...............#a#..............",
"...............#a#..............",
".............#.#a#.#............",
"..............#aaa#.............",
"...............#a#..............",
"................#..............."};
