/* XPM */
static char *cursorDragNode[] = {
/* columns rows colors chars-per-pixel */
"32 49 45 1",
"  c #000000",
". c #030201",
"X c #050502",
"o c #070602",
"O c #050505",
"+ c #090909",
"@ c #131005",
"# c #151206",
"$ c #1F1B09",
"% c #141414",
"& c #181716",
"* c #1B1912",
"= c #1A1916",
"- c #191919",
"; c #1E1E1E",
": c #211C09",
"> c #282415",
", c #3B3311",
"< c #3F3612",
"1 c #493F15",
"2 c #564A18",
"3 c #61541B",
"4 c #4B4B4B",
"5 c #515151",
"6 c #575757",
"7 c #585858",
"8 c #5A5A5A",
"9 c #5C5C5C",
"0 c #907C29",
"q c #B29A32",
"w c #BBA034",
"e c #D4B63B",
"r c #DABB3D",
"t c #DDBD3D",
"y c #E0C13E",
"u c #E2C23F",
"i c #E4C440",
"p c #999999",
"a c #A4A4A4",
"s c #D6D6D6",
"d c #E0E0E0",
"f c #EDEDED",
"g c #F3F3F3",
"h c #FFFFFF",
"j c None",
/* pixels */
"jjjjjjjjjjjjjjjjjjjjjjjjjjjjjjjj",
"jjjjjjjjjjjjjjjjjjjjjjjjjjjjjjjj",
"jjjjjjjjjjjjjjjjjjjjjjjjjjjjjjjj",
"jjjjjjjjjjjjjjjjjjjjjjjjjjjjjjjj",
"jjjjjjjjjjjjjjjjjjjjjjjjjjjjjjjj",
"jjjjjjjjjjjjjjjjjjjjjjjjjjjjjjjj",
"jjjjjjjjjjjjjjjjjjjjjjjjjjjjjjjj",
"jjjjjjjjjjjjjjjjjjjjjjjjjjjjjjjj",
"jjjjjjjjjjjjjjjjjjjjjjjjjjjjjjjj",
"jjjjjjjjjjjjjjjjjjjjjjjjjjjjjjjj",
"jjjjjjjjjjjjjjjjjjjjjjjjjjjjjjjj",
"jjjjjjjjjjjjjjjjjjjjjjjjjjjjjjjj",
"jjjjjjjjjjjjjjjjjjjjjjjjjjjjjjjj",
"jjjjjjjjjjjjjjjjjjjjjjjjjjjjjjjj",
"jjjjjjjjjjjjjjjjjjjjjjjjjjjjjjjj",
"jjjjjjjjjjjjjjjjjjjjjjjjjjjjjjjj",
"jjjjjjjjjjjjjjjjjjjjjjjjjjjjjjjj",
"jjjjjjjjjjjjjjjjjjjjjjjjjjjjjjjj",
"jjjjjjjjjjjjjjjjjjjjjjjjjjjjjjjj",
"jjjjjjjjjjjjjjjjjjjjjjjjjjjjjjjj",
"jjjjjjjjjjjjjjjjjjjjjjjjjjjjjjjj",
"jjjjjjjjjjjjjjjjjjjjjjjjjjjjjjjj",
"jjjjjjjjjjjjjjjjjjjjjjjjjjjjjjjj",
"jjjjjjjjjjjjjjjjjjjjjjjjjjjjjjjj",
"jjjjjjjjjjjjjjjhhjjjjjjjjjjjjjjj",
"jjjjjjjjjjjjjjh88hjjjjjjjjjjjjjj",
"jjjjjjjjjjjjjjg++gjjjjjjjjjjjjjj",
"jjjjjjjjjjjjjja  ajjjjjjjjjjjjjj",
"jjjjjjjjjjjjjh4  4hjjjjjjjjjjjjj",
"jjjjjjjjjjjjjfO  Ofjjjjjjjjjjjjj",
"jjjjjjjjjjjjjp    pjjjjjjjjjjjjj",
"jjjjjjjjjjjjh5    5hjjjjjjjjjjjj",
"jjjjjjjjjjjjh=#  #=hjjjjjjjjjjjj",
"jjjjjjjjjjjjs1t3,u:sjjjjjjjjjjjj",
"jjjjjjjjjjjjp1ue1u:pjjjjjjjjjjjj",
"jjjjjjjjjjjh72ii0i:9hjjjjjjjjjjj",
"jjjjjjjjjjjh;1iqui:;hjjjjjjjjjjj",
"jjjjjjjjjjjh&1i1uu:-hjjjjjjjjjjj",
"jjjjjjjjjjjh71i@qr:8hjjjjjjjjjjj",
"jjjjjjjjjjjjd>2.$2*djjjjjjjjjjjj",
"jjjjjjjjjjjjhd6%%6dhjjjjjjjjjjjj",
"jjjjjjjjjjjjjjhhhhjjjjjjjjjjjjjj",
"jjjjjjjjjjjjjjjjjjjjjjjjjjjjjjjj",
"jjjjjjjjjjjjjjjjjjjjjjjjjjjjjjjj",
"jjjjjjjjjjjjjjjjjjjjjjjjjjjjjjjj",
"jjjjjjjjjjjjjjjjjjjjjjjjjjjjjjjj",
"jjjjjjjjjjjjjjjjjjjjjjjjjjjjjjjj",
"jjjjjjjjjjjjjjjjjjjjjjjjjjjjjjjj",
"jjjjjjjjjjjjjjjjjjjjjjjjjjjjjjjj"
};
