/* XPM */
static char *cursorFloatOverTrack[] = {
/* columns rows colors chars-per-pixel */
"32 49 39 1",
"  c #000000",
". c #030303",
"X c #090909",
"o c #0C0C0C",
"O c #0E0E0E",
"+ c #151206",
"@ c #13120F",
"# c #16140F",
"$ c #111111",
"% c #141414",
"& c #221D0A",
"* c #3A3210",
"= c #453B13",
"- c #463C14",
"; c #483D14",
": c #756521",
"> c #464646",
", c #484848",
"< c #4E4E4E",
"1 c #4F4F4F",
"2 c #565656",
"3 c #595959",
"4 c #AF9630",
"5 c #C0A536",
"6 c #CEB13A",
"7 c #D4B73C",
"8 c #E4C440",
"9 c #8C8C8C",
"0 c #929292",
"q c #A0A0A0",
"w c #CBCBCB",
"e c #DBDBDB",
"r c #DFDFDF",
"t c #E8E8E8",
"y c #F2F2F2",
"u c #FCFCFC",
"i c #FDFDFD",
"p c #FFFFFF",
"a c None",
/* pixels */
"aaaaaaaaaaaaaaaaaaaaaaaaaaaaaaaa",
"aaaaaaaaaaaaaaaaaaaaaaaaaaaaaaaa",
"aaaaaaaaaaaaaaaaaaaaaaaaaaaaaaaa",
"aaaaaaaaaaaaaaaaaaaaaaaaaaaaaaaa",
"aaaaaaaaaaaaaaaaaaaaaaaaaaaaaaaa",
"aaaaaaaaaaaaaaaaaaaaaaaaaaaaaaaa",
"aaaaaaaaaaaaaaaaaaaaaaaaaaaaaaaa",
"aaaaaaaaaaaaaaaaaaaaaaaaaaaaaaaa",
"aaaaaaaaaaaaaaaaaaaaaaaaaaaaaaaa",
"aaaaaaaaaaaaaaaaaaaaaaaaaaaaaaaa",
"aaaaaaaaaaaaaaaaaaaaaaaaaaaaaaaa",
"aaaaaaaaaaaaaaaaaaaaaaaaaaaaaaaa",
"aaaaaaaaaaaaaaaaaaaaaaaaaaaaaaaa",
"aaaaaaaaaaaaaaaaaaaaaaaaaaaaaaaa",
"aaaaaaaaaaaaaaaaaaaaaaaaaaaaaaaa",
"aaaaaaaaaaaaaaaaaaaaaaaaaaaaaaaa",
"aaaaaaaaaaaaaaaaaaaaaaaaaaaaaaaa",
"aaaaaaaaaaaaaaaaaaaaaaaaaaaaaaaa",
"aaaaaaaaaaaaaaaaaaaaaaaaaaaaaaaa",
"aaaaaaaaaaaaaaaaaaaaaaaaaaaaaaaa",
"aaaaaaaaaaaaaaaaaaaaaaaaaaaaaaaa",
"aaaaaaaaaaaaaaaaaaaaaaaaaaaaaaaa",
"aaaaaaaaaaaaaaaaaaaaaaaaaaaaaaaa",
"aaaaaaaaaaaaaaaaaaaaaaaaaaaaaaaa",
"aaaaaaaaaaaaaaappaaaaaaaaaaaaaaa",
"aaaaaaaaaaaaaap33paaaaaaaaaaaaaa",
"aaaaaaaaaaaaaayXXyaaaaaaaaaaaaaa",
"aaaaaaaaaaaaaaq  qaaaaaaaaaaaaaa",
"aaaaaaaaaaaaap>  ,paaaaaaaaaaaaa",
"aaaaaaaaaaaaat    taaaaaaaaaaaaa",
"aaaaaaaaaaaaa0    0aaaaaaaaaaaaa",
"aaaaaaaaaaaap,    ,paaaaaaaaaaaa",
"aaaaaaaaaaaap@++++@paaaaaaaaaaaa",
"aaaaaaaaaaaaw:8888=waaaaaaaaaaaa",
"aaaaaaaaaaaa9&;75;+9aaaaaaaaaaaa",
"aaaaaaaaaaap<  64  <paaaaaaaaaaa",
"aaaaaaaaaaap$  64  $paaaaaaaaaaa",
"aaaaaaaaaaapO  64  Opaaaaaaaaaaa",
"aaaaaaaaaaap<  64  <paaaaaaaaaaa",
"aaaaaaaaaaaaeO -* Oeaaaaaaaaaaaa",
"aaaaaaaaaaaapr2%%2rpaaaaaaaaaaaa",
"aaaaaaaaaaaaaappppaaaaaaaaaaaaaa",
"aaaaaaaaaaaaaaaaaaaaaaaaaaaaaaaa",
"aaaaaaaaaaaaaaaaaaaaaaaaaaaaaaaa",
"aaaaaaaaaaaaaaaaaaaaaaaaaaaaaaaa",
"aaaaaaaaaaaaaaaaaaaaaaaaaaaaaaaa",
"aaaaaaaaaaaaaaaaaaaaaaaaaaaaaaaa",
"aaaaaaaaaaaaaaaaaaaaaaaaaaaaaaaa",
"aaaaaaaaaaaaaaaaaaaaaaaaaaaaaaaa"
};
