/* XPM */
static char * cursorDragNode_xpm[] = {
"32 49 10 1",
" 	c None",
".	c #FFFFFF",
"+	c #000000",
"@	c #303030",
"#	c #595959",
"$	c #B2B2B2",
"%	c #E6E6E6",
"&	c #7D7D7D",
"*	c #999999",
"=	c #C7C7C7",
"                                ",
"                                ",
"                                ",
"                                ",
"                                ",
"                                ",
"                                ",
"                                ",
"                                ",
"                                ",
"                                ",
"                                ",
"                                ",
"                                ",
"                                ",
"                                ",
"                                ",
"                                ",
"                                ",
"                                ",
"                                ",
"                                ",
"                                ",
"                                ",
"                .               ",
"               ...              ",
"               .+.              ",
"               .+.              ",
"               .+.              ",
"               .@.              ",
"              .@@+.             ",
"              .@@+..            ",
"             .@+@++.            ",
"             .@++++.            ",
"            .+++++++.           ",
"           .+++++++++.          ",
"          .+++++++++++.         ",
"         .+++.......+++..       ",
"        .+.....    ....+#.....$+",
"        ...           ........+%",
"                        .....&$.",
"                        .....+..",
"                        ...*+*..",
"                        ...+++..",
"                        ...*+*..",
"                        ...&=...",
"                        ..%+....",
"                        .$+$....",
"                        ++......"};
