/* XPM */
static char *cursorGain[] = {
/* columns rows colors chars-per-pixel */
"32 32 3 1",
"  c black",
". c gray100",
"X c None",
/* pixels */
"XXXXXXXXXXXXXXX   XXXXXXXXXXXXXX",
"XXXXXXXXXXXXXX  .  XXXXXXXXXXXXX",
"XXXXXXXXXXXXX  ...  XXXXXXXXXXXX",
"XXXXXXXXXXXX  .....  XXXXXXXXXXX",
"XXXXXXXXXXXXXX ... XXXXXXXXXXXXX",
"XXXXXXXXXXXXXX ... XXXXXXXXXXXXX",
"XXXXXXXXXXXXXX ... XXXXXXXXXXXXX",
"XXXXXXXXXXXXXX ... XXXXXXXXXXXXX",
"XXXXXXXXXX  XX ... XXXXXXXXXXXXX",
"XXXXXXXXX . XX ... XXXXXXXXXXXXX",
"XXXXXXXX .. XX ... XXXXXXXXXXXXX",
"XXXXXXX ... XXXXXXXXXXXXXXXX  XX",
"XXXXX  .... XXXXXXXXXXXXXX  . XX",
"XX    ..... XXXXXXXXXXXX  ... XX",
"XX .. ..... XXXXXXXXXX  ..... XX",
"XX .. ..... XXXXXXXX  ....... XX",
"XX .. ..... XXXXXX  ......... XX",
"XX .. ..... XXXX  ........... XX",
"XX    ..... XXXX              XX",
"XXXXX  .... XXXXXXXXXXXXXXXXXXXX",
"XXXXXXX ... XXXXXXXXXXXXXXXXXXXX",
"XXXXXXXX .. XX ... XXXXXXXXXXXXX",
"XXXXXXXXX . XX ... XXXXXXXXXXXXX",
"XXXXXXXXXX  XX ... XXXXXXXXXXXXX",
"XXXXXXXXXXXXXX ... XXXXXXXXXXXXX",
"XXXXXXXXXXXXXX ... XXXXXXXXXXXXX",
"XXXXXXXXXXXXXX ... XXXXXXXXXXXXX",
"XXXXXXXXXXXXXX ... XXXXXXXXXXXXX",
"XXXXXXXXXXXX  .....  XXXXXXXXXXX",
"XXXXXXXXXXXXX  ...  XXXXXXXXXXXX",
"XXXXXXXXXXXXXX  .  XXXXXXXXXXXXX",
"XXXXXXXXXXXXXXX   XXXXXXXXXXXXXX"
};
