/* XPM */
static char *cursorHoldLrud[]={
"32 32 3 1",
". c None",
"# c #000000",
"a c #303030",
"................................",
"................................",
"...............#................",
"..............###...............",
".............#####..............",
"............#######.............",
"..............###...............",
"..............###...............",
"..............###...............",
"..............###...............",
"..............###...............",
"......#.......###........#......",
".....##.......###........##.....",
"....########################....",
"...##########################...",
"....########################....",
".....##.......###........##.....",
"......#.......###........#......",
"..............###...............",
"..............###...............",
"..............###...............",
"..............###...............",
"..............###...............",
"..............###......aa.....aa",
"..............###......aa.....aa",
"............#######....a.......a",
".............#####.....a.......a",
"..............###......a.......a",
"...............#.......a.......a",
".......................a.......a",
".......................aa.....aa",
".......................aa.....aa"};
