/* XPM */
static char *cursorHoldLrud[] = {
/* columns rows colors chars-per-pixel */
"32 32 5 1",
"  c black",
". c #090A090A090A",
"X c #120812081208",
"o c gray100",
"O c None",
/* pixels */
"OOOOOOOOOOOOOOO...OOOOOOOOOOOOOO",
"OOOOOOOOOOOOOO..o..OOOOOOOOOOOOO",
"OOOOOOOOOOOOO..ooo..OOOOOOOOOOOO",
"OOOOOOOOOOOO..ooooo..OOOOOOOOOOO",
"OOOOOOOOOOOXXX ooo XXXOOOOOOOOOO",
"OOOOOOOOOOOOOO ooo OOOOOOOOOOOOO",
"OOOOOOOOOOOOOO ooo OOOOOOOOOOOOO",
"OOOOOOOOOOOOOO ooo OOOOOOOOOOOOO",
"OOOOOOOOOOOOOO ooo OOOOOOOOOOOOO",
"OOOOOOOOOOOOOO ooo OOOOOOOOOOOOO",
"OOOO OOOOOOOOO ooo OOOOOOOO OOOO",
"OOO  OOOOOOOOO ooo OOOOOOOO  OOO",
"OO   OOOOOOOOO ooo OOOOOOOO   OO",
"O  o           ooo          o  O",
"  oooooooooooooooooooooooooooo  ",
" oooooooooooooooooooooooooooooo ",
"  oooooooooooooooooooooooooooo  ",
"O  o           ooo          o  O",
"OO   OOOOOOOOO ooo OOOOOOOO   OO",
"OOO  OOOOOOOOO ooo OOOOOOOO  OOO",
"OOOO OOOOOOOOO ooo OOOOOOOO OOOO",
"OOOOOOOOOOOOOO ooo OOOOOOOOOOOOO",
"OOOOOOOOOOOOOO ooo OOOOOOOOOOOOO",
"OOOOOOOOOOOOOO ooo OOOOOOOOOOOOO",
"OOOOOOOOOOOOOO ooo OOOOOOOOOOOOO",
"OOOOOOOOOOOOOO ooo OOOOOOOOOOOOO",
"OOOOOOOOOOOOOO ooo OOOOOOOOOOOOO",
"OOOOOOOOOOOXXXXoooXXXXOOOOOOOOOO",
"OOOOOOOOOOOOXXooooo XOOOOOOOOOOO",
"OOOOOOOOOOOOOXXoooXXOOOOOOOOOOOO",
"OOOOOOOOOOOOOOXXoXXOOOOOOOOOOOOO",
"OOOOOOOOOOOOOOOXXXOOOOOOOOOOOOOO"
};
