/* XPM */
static char *cursorFloat[] = {
/* columns rows colors chars-per-pixel */
"32 32 23 1",
"  c #000000",
". c #040404",
"X c #080808",
"o c #121212",
"O c #131313",
"+ c #191919",
"@ c #1E1E1E",
"# c #484848",
"$ c #4F4F4F",
"% c #535353",
"& c #585858",
"* c #5B5B5B",
"= c #969696",
"- c #989898",
"; c #A1A1A1",
": c #D5D5D5",
"> c #E2E2E2",
", c #E3E3E3",
"< c #EBEBEB",
"1 c #F1F1F1",
"2 c #FEFEFE",
"3 c #FFFFFF",
"4 c None",
/* pixels */
"44444444444444444444444444444444",
"44444444444444444444444444444444",
"44444444444444444444444444444444",
"44444444444444444444444444444444",
"44444444444444444444444444444444",
"44444444444444444444444444444444",
"44444444444444444444444444444444",
"44444444444444444444444444444444",
"44444444444444444444444444444444",
"44444444444444444444444444444444",
"44444444444444444444444444444444",
"44444444444444444444444444444444",
"44444444444444444444444444444444",
"44444444444444444444444444444444",
"44444444444444433444444444444444",
"444444444444443%%344444444444444",
"444444444444441XX144444444444444",
"44444444444444;  ;44444444444444",
"44444444444443#  #34444444444444",
"4444444444444<.  .<4444444444444",
"4444444444444=    =4444444444444",
"4444444444443$    $3444444444444",
"4444444444443O    O3444444444444",
"444444444444:      :444444444444",
"444444444444-      -444444444444",
"444444444443*      *344444444444",
"444444444443@      @344444444444",
"444444444443+      +344444444444",
"444444444443*      *344444444444",
"444444444444>O    O>444444444444",
"4444444444444>&++*>4444444444444",
"44444444444444333344444444444444"
};
