/* XPM */
static char *cursorFloatOverClip[] = {
/* columns rows colors chars-per-pixel */
"32 49 50 1",
"  c #000000",
". c #020201",
"X c #030201",
"o c #040301",
"O c #040401",
"+ c #050505",
"@ c #0D0C04",
"# c #090909",
"$ c #0F0F0F",
"% c #151206",
"& c #161306",
"* c #1D1908",
"= c #141414",
"- c #151515",
"; c #191919",
": c #1E1E1E",
"> c #2C260C",
", c #3A3210",
"< c #403712",
"1 c #423913",
"2 c #4F4416",
"3 c #594D19",
"4 c #60521B",
"5 c #60531C",
"6 c #7C6B23",
"7 c #4B4B4B",
"8 c #515151",
"9 c #575757",
"0 c #585858",
"q c #5A5A5A",
"w c #5C5C5C",
"e c #9B852B",
"r c #9C862C",
"t c #B29A32",
"y c #C9AC38",
"u c #CCAF39",
"i c #CEB13A",
"p c #CFB33A",
"a c #D7B93D",
"s c #DBBD3E",
"d c #E3C33F",
"f c #E4C440",
"g c #999999",
"h c #A4A4A4",
"j c #D6D6D6",
"k c #E0E0E0",
"l c #EDEDED",
"z c #F3F3F3",
"x c #FFFFFF",
"c c None",
/* pixels */
"cccccccccccccccccccccccccccccccc",
"cccccccccccccccccccccccccccccccc",
"cccccccccccccccccccccccccccccccc",
"cccccccccccccccccccccccccccccccc",
"cccccccccccccccccccccccccccccccc",
"cccccccccccccccccccccccccccccccc",
"cccccccccccccccccccccccccccccccc",
"cccccccccccccccccccccccccccccccc",
"cccccccccccccccccccccccccccccccc",
"cccccccccccccccccccccccccccccccc",
"cccccccccccccccccccccccccccccccc",
"cccccccccccccccccccccccccccccccc",
"cccccccccccccccccccccccccccccccc",
"cccccccccccccccccccccccccccccccc",
"cccccccccccccccccccccccccccccccc",
"cccccccccccccccccccccccccccccccc",
"cccccccccccccccccccccccccccccccc",
"cccccccccccccccccccccccccccccccc",
"cccccccccccccccccccccccccccccccc",
"cccccccccccccccccccccccccccccccc",
"cccccccccccccccccccccccccccccccc",
"cccccccccccccccccccccccccccccccc",
"cccccccccccccccccccccccccccccccc",
"cccccccccccccccccccccccccccccccc",
"cccccccccccccccxxccccccccccccccc",
"ccccccccccccccxqqxcccccccccccccc",
"ccccccccccccccz##zcccccccccccccc",
"cccccccccccccch  hcccccccccccccc",
"cccccccccccccx7  7xccccccccccccc",
"cccccccccccccl+  +lccccccccccccc",
"cccccccccccccg    gccccccccccccc",
"ccccccccccccx8    8xcccccccccccc",
"ccccccccccccx-  & -xcccccccccccc",
"ccccccccccccjo6afi@jcccccccccccc",
"ccccccccccccg1fr24 gcccccccccccc",
"cccccccccccxwrs    wxccccccccccc",
"cccccccccccx:tp    :xccccccccccc",
"cccccccccccx;5f1O* ;xccccccccccc",
"cccccccccccxq&iddy qxccccccccccc",
"ccccccccccccj$ ,3>$kcccccccccccc",
"ccccccccccccxk9--9jxcccccccccccc",
"ccccccccccccccxxxxcccccccccccccc",
"cccccccccccccccccccccccccccccccc",
"cccccccccccccccccccccccccccccccc",
"cccccccccccccccccccccccccccccccc",
"cccccccccccccccccccccccccccccccc",
"cccccccccccccccccccccccccccccccc",
"cccccccccccccccccccccccccccccccc",
"cccccccccccccccccccccccccccccccc"
};
