/* XPM */
static char *dummy[]={
"32 32 3 1",
". c None",
"# c #000000",
"a c #ffffff",
"................#...............",
"...............#a#..............",
"..............#aaa#.............",
".............#.#a#.#............",
"...............#a#..............",
"...............#a#..............",
"...............#a#..............",
"................................",
"................................",
"................................",
"...........#....................",
"..........##....................",
"........##a#....................",
"....####aaa#............###.....",
"....#aa#aaa#..........##aa#.....",
"....#aa#aaa#........##aaaa#.....",
"....#aa#aaa#......##aaaaaa#.....",
"....#aa#aaa#....##aaaaaaaa#.....",
"....####aaa#....###########.....",
"........##a#....................",
"..........##....................",
"...........#....................",
"................................",
"................................",
"................................",
"...............#a#..............",
"...............#a#..............",
"...............#a#..............",
".............#.#a#.#............",
"..............#aaa#.............",
"...............#a#..............",
"................#..............."};
