/* XPM */
static char * biglock_on_xpm[] = {
"35 14 72 1",
" 	c None",
".	c #004080",
"+	c #007FFF",
"@	c #80BFFF",
"#	c #0065CB",
"$	c #00172F",
"%	c #0053A7",
"&	c #000A15",
"*	c #001E3E",
"=	c #0063C7",
"-	c #0055AB",
";	c #001831",
">	c #000914",
",	c #001A36",
"'	c #0061C3",
")	c #0077EF",
"!	c #002041",
"~	c #00356B",
"{	c #005FBF",
"]	c #000000",
"^	c #000001",
"/	c #00366D",
"(	c #0066CD",
"_	c #002347",
":	c #00070F",
"<	c #0075EB",
"[	c #0064C9",
"}	c #000002",
"|	c #002B58",
"1	c #00458B",
"2	c #004C9A",
"3	c #005EBE",
"4	c #00254B",
"5	c #001022",
"6	c #003A76",
"7	c #007AF5",
"8	c #0062C5",
"9	c #0053A8",
"0	c #003B77",
"a	c #0078F1",
"b	c #002042",
"c	c #00050C",
"d	c #006AD6",
"e	c #003770",
"f	c #007DFB",
"g	c #0050A1",
"h	c #003871",
"i	c #007CFA",
"j	c #005DBB",
"k	c #006FDF",
"l	c #0070E1",
"m	c #0058B1",
"n	c #004A96",
"o	c #007CF9",
"p	c #003265",
"q	c #000103",
"r	c #006EDE",
"s	c #004183",
"t	c #0057B0",
"u	c #005CBA",
"v	c #001C39",
"w	c #0071E4",
"x	c #003C79",
"y	c #000307",
"z	c #000811",
"A	c #004FA0",
"B	c #000308",
"C	c #00060E",
"D	c #000812",
"E	c #001D3B",
"F	c #007BF7",
"G	c #0072E6",
"     .........................     ",
"   ..+++++++++++++++++++++++++..   ",
"  .+++++++++++++++++++++++++++++.  ",
" .+++++++++++++++++++++++++++++++@ ",
" .++++#$#+++%$&*=++-;>,'#$#)!~+++@ ",
".+++++{]{++=^/(_:<[}|=12{]345<++++@",
".+++++{]{++6^7+8]90^a+++{]bcd+++++@",
".+++++{]{++e}f+(]gh}i+++{]&}j+++++@",
".+++++{]%klm]nopqrm]s73t{]uv&w++++@",
" .++++{]]]:+xy]zA++xB]Ct{]{lDEf++@ ",
" .+++++++++++Fwf++++oGf++++++++++@ ",
"  .+++++++++++++++++++++++++++++@  ",
"   @@+++++++++++++++++++++++++@@   ",
"     @@@@@@@@@@@@@@@@@@@@@@@@@     "};
