/* XPM */
static char * biglock_off_xpm[] = {
"35 14 71 1",
" 	c None",
".	c #666666",
"+	c #BECDD2",
"@	c #E6E6E6",
"#	c #97A3A7",
"$	c #232526",
"%	c #7C8689",
"&	c #0F1011",
"*	c #2E3133",
"=	c #949FA3",
"-	c #7F898C",
";	c #242728",
">	c #0E1010",
",	c #282B2C",
"'	c #919CA0",
")	c #B2C0C4",
"!	c #303435",
"~	c #4F5658",
"{	c #8E999D",
"]	c #000000",
"^	c #515759",
"/	c #98A4A8",
"(	c #34393A",
"_	c #0B0C0C",
":	c #AFBCC1",
"<	c #95A1A5",
"[	c #010101",
"}	c #414648",
"|	c #676F72",
"1	c #727B7E",
"2	c #8D989C",
"3	c #373C3D",
"4	c #191B1C",
"5	c #575E61",
"6	c #B6C4C9",
"7	c #929EA2",
"8	c #7D878A",
"9	c #585F62",
"0	c #B3C1C6",
"a	c #313536",
"b	c #080909",
"c	c #9FACB0",
"d	c #535A5C",
"e	c #BBC9CE",
"f	c #778184",
"g	c #545A5D",
"h	c #BAC8CD",
"i	c #8B969A",
"j	c #A6B3B7",
"k	c #A7B4B9",
"l	c #838E91",
"m	c #6F787B",
"n	c #B9C8CD",
"o	c #4B5153",
"p	c #020202",
"q	c #A5B2B6",
"r	c #61696B",
"s	c #838D90",
"t	c #8A9599",
"u	c #2A2D2E",
"v	c #A9B7BB",
"w	c #5A6163",
"x	c #050505",
"y	c #0C0D0E",
"z	c #778083",
"A	c #050606",
"B	c #0A0B0B",
"C	c #0D0E0E",
"D	c #2B2F30",
"E	c #B8C6CB",
"F	c #ABB8BD",
"     .........................     ",
"   ..+++++++++++++++++++++++++..   ",
"  .+++++++++++++++++++++++++++++.  ",
" .+++++++++++++++++++++++++++++++@ ",
" .++++#$#+++%$&*=++-;>,'#$#)!~+++@ ",
".+++++{]{++=]^/(_:<[}=|1{]234:++++@",
".+++++{]{++5]6+7]89]0+++{]abc+++++@",
".+++++{]{++d[e+/]fg[h+++{]&[i+++++@",
".+++++{]%jkl]mnopql]r62s{]tu&v++++@",
" .++++{]]]_+wx]yz++wA]Bs{]{kCD+++@ ",
" .+++++++++++Eve++++nFe++++++++++@ ",
"  .+++++++++++++++++++++++++++++@  ",
"   @@+++++++++++++++++++++++++@@   ",
"     @@@@@@@@@@@@@@@@@@@@@@@@@     "};
