/* XPM */
static char * bigmute_off_xpm[] = {
"35 14 46 1",
" 	c None",
".	c #666666",
"+	c #BECDD2",
"@	c #E6E6E6",
"#	c #828C90",
"$	c #000000",
"%	c #2B2E2F",
"&	c #BAC8CD",
"*	c #1C1E1F",
"=	c #A6B3B7",
"-	c #A3B0B4",
";	c #1A1C1C",
">	c #020303",
",	c #7F898C",
"'	c #6C7578",
")	c #AFBCC1",
"!	c #788285",
"~	c #99A5A9",
"{	c #96A2A6",
"]	c #B1BFC4",
"^	c #4C5254",
"/	c #191B1C",
"(	c #0E1010",
"_	c #4D5355",
":	c #090A0A",
"<	c #0B0C0C",
"[	c #242728",
"}	c #9DA9AD",
"|	c #141617",
"1	c #2F3334",
"2	c #838D90",
"3	c #A0ADB1",
"4	c #808A8D",
"5	c #A6B4B8",
"6	c #8F9A9E",
"7	c #A9B7BB",
"8	c #9BA8AC",
"9	c #4E5456",
"0	c #8B969A",
"a	c #373B3C",
"b	c #070808",
"c	c #B7C5CA",
"d	c #656D70",
"e	c #121414",
"f	c #020202",
"g	c #1A1C1D",
"     .........................     ",
"   ..+++++++++++++++++++++++++..   ",
"  .+++++++++++++++++++++++++++++.  ",
" .+++++++++++++++++++++++++++++++@ ",
" .+++#$%+&*$=#$-+#$=$$$$$#$$$;+++@ ",
".++++#$>,'>$=#$-+#$=)!$~)#${)]++++@",
".++++#$^/(_$=#$-+#$=+#$=+#$:<[++++@",
".++++#$}|1#$=2$3+4$5+#$=+#$6=7++++@",
".++++#$-++#$=8$90abc+#$=+#${)]++++@",
" .+++#$-++#$=+defg4++#$=+#$$$;+++@ ",
" .+++++++++++++++++++++++++++++++@ ",
"  .+++++++++++++++++++++++++++++@  ",
"   @@+++++++++++++++++++++++++@@   ",
"     @@@@@@@@@@@@@@@@@@@@@@@@@     "};
