/* XPM */
static char * bigrec_on_xpm[] = {
"35 14 63 1",
" 	c None",
".	c #800000",
"+	c #FF0000",
"@	c #FFB3B3",
"#	c #CB0000",
"$	c #2F0000",
"%	c #330000",
"&	c #5E0000",
"*	c #EC0000",
"=	c #390000",
"-	c #AB0000",
";	c #310000",
">	c #140000",
",	c #360000",
"'	c #C30000",
")	c #BF0000",
"!	c #000000",
"~	c #920000",
"{	c #A00000",
"]	c #7F0000",
"^	c #860000",
"/	c #AF0000",
"(	c #B30000",
"_	c #C90000",
":	c #020000",
"<	c #580000",
"[	c #C70000",
"}	c #8B0000",
"|	c #9A0000",
"1	c #9F0000",
"2	c #A80000",
"3	c #9D0000",
"4	c #3D0000",
"5	c #4F0000",
"6	c #7B0000",
"7	c #770000",
"8	c #010000",
"9	c #F10000",
"0	c #1A0000",
"a	c #6E0000",
"b	c #8F0000",
"c	c #710000",
"d	c #FA0000",
"e	c #650000",
"f	c #070000",
"g	c #DF0000",
"h	c #E10000",
"i	c #B10000",
"j	c #830000",
"k	c #F50000",
"l	c #BE0000",
"m	c #B00000",
"n	c #F60000",
"o	c #2D0000",
"p	c #1F0000",
"q	c #AC0000",
"r	c #0B0000",
"s	c #790000",
"t	c #080000",
"u	c #0E0000",
"v	c #F90000",
"w	c #E60000",
"x	c #FB0000",
"     .........................     ",
"   ..+++++++++++++++++++++++++..   ",
"  .+++++++++++++++++++++++++++++.  ",
" .+++++++++++++++++++++++++++++++@ ",
" .+++++++#$$%&*#$$$=++-;>,'++++++@ ",
".++++++++)!~{!])!^/(+_:<[}|+++++++@",
".++++++++)!12!3)!456+789++++++++++@",
".++++++++)!0!5+)!ab-+c:d++++++++++@",
".++++++++)!'ef#)!-gh+i!jklm+++++++@",
" .+++++++)!'nopq!!!r++st!um++++++@ ",
" .+++++++++++++++++++++vwx+++++++@ ",
"  .+++++++++++++++++++++++++++++@  ",
"   @@+++++++++++++++++++++++++@@   ",
"     @@@@@@@@@@@@@@@@@@@@@@@@@     "};
