/* XPM */
static char * bigrec_off_xpm[] = {
"35 14 62 1",
" 	c None",
".	c #666666",
"+	c #BECDD2",
"@	c #E6E6E6",
"#	c #97A3A7",
"$	c #232526",
"%	c #26292A",
"&	c #464B4D",
"*	c #AFBDC2",
"=	c #2A2D2E",
"-	c #7F898C",
";	c #242728",
">	c #0E1010",
",	c #282B2C",
"'	c #919CA0",
")	c #8E999D",
"!	c #000000",
"~	c #6C7578",
"{	c #778083",
"]	c #5E6668",
"^	c #636B6E",
"/	c #828C90",
"(	c #858F93",
"_	c #95A1A5",
":	c #010101",
"<	c #414648",
"[	c #949FA3",
"}	c #676F72",
"|	c #727B7E",
"1	c #767F82",
"2	c #7D878A",
"3	c #747E81",
"4	c #2D3132",
"5	c #3A3F41",
"6	c #5B6265",
"7	c #585F62",
"8	c #B3C1C6",
"9	c #131415",
"0	c #51585A",
"a	c #6A7275",
"b	c #545A5D",
"c	c #BAC8CD",
"d	c #4B5153",
"e	c #050505",
"f	c #A6B3B7",
"g	c #A7B4B9",
"h	c #838E91",
"i	c #61696B",
"j	c #B6C4C9",
"k	c #8D989C",
"l	c #838D90",
"m	c #B7C5CA",
"n	c #212425",
"o	c #171819",
"p	c #808A8D",
"q	c #080809",
"r	c #5A6163",
"s	c #050606",
"t	c #0A0B0B",
"u	c #B9C8CD",
"v	c #ABB8BD",
"w	c #BBC9CE",
"     .........................     ",
"   ..+++++++++++++++++++++++++..   ",
"  .+++++++++++++++++++++++++++++.  ",
" .+++++++++++++++++++++++++++++++@ ",
" .+++++++#$$%&*#$$$=++-;>,'++++++@ ",
".++++++++)!~{!])!^/(+_:<[}|+++++++@",
".++++++++)!12!3)!456+7!8++++++++++@",
".++++++++)!9!5+)!0a-+b:c++++++++++@",
".++++++++)!'de#)!-fg+h!ijkl+++++++@",
" .+++++++)!'mnop!!!q++rs!tl++++++@ ",
" .+++++++++++++++++++++uvw+++++++@ ",
"  .+++++++++++++++++++++++++++++@  ",
"   @@+++++++++++++++++++++++++@@   ",
"     @@@@@@@@@@@@@@@@@@@@@@@@@     "};
