/* XPM */
static char * bigsolo_on_xpm[] = {
"35 14 64 1",
" 	c None",
".	c #008000",
"+	c #00FF00",
"@	c #80FF80",
"#	c #00F800",
"$	c #007000",
"%	c #002100",
"&	c #001B00",
"*	c #004300",
"=	c #00E700",
"-	c #00A700",
";	c #002F00",
">	c #001500",
",	c #003E00",
"'	c #00C700",
")	c #00CB00",
"!	c #008F00",
"~	c #000000",
"{	c #00B800",
"]	c #00CE00",
"^	c #007A00",
"/	c #00DC00",
"(	c #000100",
"_	c #006D00",
":	c #00CD00",
"<	c #004700",
"[	c #000F00",
"}	c #00AB00",
"|	c #00BF00",
"1	c #00EB00",
"2	c #009A00",
"3	c #00C900",
"4	c #007600",
"5	c #00F500",
"6	c #00C500",
"7	c #006800",
"8	c #00A800",
"9	c #00FD00",
"0	c #009500",
"a	c #004100",
"b	c #000B00",
"c	c #000200",
"d	c #00C600",
"e	c #00FB00",
"f	c #006100",
"g	c #00A100",
"h	c #00C200",
"i	c #00B100",
"j	c #009600",
"k	c #00F900",
"l	c #006500",
"m	c #000300",
"n	c #009E00",
"o	c #00DF00",
"p	c #00E100",
"q	c #00DE00",
"r	c #000800",
"s	c #005800",
"t	c #007900",
"u	c #000700",
"v	c #001100",
"w	c #00A000",
"x	c #00F700",
"y	c #00E400",
"     .........................     ",
"   ..+++++++++++++++++++++++++..   ",
"  .+++++++++++++++++++++++++++++.  ",
" .+++++++++++++++++++++++++++++++@ ",
" .++++#$%&*=+-;>,');)++++-;>,'+++@ ",
".+++++!~{]^/'(_:<[}~|+++'(_:<[1+++@",
".+++++2~;$3+4(5+6~7~|+++4(5+6~8+++@",
".+++++90abcd$ce+:~f~|+++$ce+:~g+++@",
".+++++gh9{~8i~jklmn~-op+i~jklmq+++@",
" .++++!rmmsk+tu~vw|~~~[++tu~vw+++@ ",
" .+++++e=5++++xye+++++++++xye++++@ ",
"  .+++++++++++++++++++++++++++++@  ",
"   @@+++++++++++++++++++++++++@@   ",
"     @@@@@@@@@@@@@@@@@@@@@@@@@     "};
