/* XPM */
static char * bigsolo_off_xpm[] = {
"35 14 63 1",
" 	c None",
".	c #666666",
"+	c #BECDD2",
"@	c #E6E6E6",
"#	c #B8C7CC",
"$	c #535A5C",
"%	c #181A1B",
"&	c #141516",
"*	c #313537",
"=	c #ACB9BE",
"-	c #7C8689",
";	c #232526",
">	c #0F1011",
",	c #2E3133",
"'	c #949FA3",
")	c #97A3A7",
"!	c #6A7275",
"~	c #000000",
"{	c #899397",
"]	c #99A5A9",
"^	c #5A6264",
"/	c #A3B0B5",
"(	c #515759",
"_	c #98A4A8",
":	c #34393A",
"<	c #0B0C0C",
"[	c #7F898C",
"}	c #8E999D",
"|	c #AFBCC1",
"1	c #727B7E",
"2	c #95A1A5",
"3	c #575E61",
"4	c #B6C4C9",
"5	c #929EA2",
"6	c #4D5355",
"7	c #7D878A",
"8	c #BCCBD0",
"9	c #6F777A",
"0	c #303435",
"a	c #080809",
"b	c #010101",
"c	c #939FA3",
"d	c #BBC9CE",
"e	c #484D4F",
"f	c #778184",
"g	c #909B9F",
"h	c #838E91",
"i	c #6F787B",
"j	c #B9C8CD",
"k	c #4B5153",
"l	c #020202",
"m	c #757F82",
"n	c #A6B3B7",
"o	c #A7B4B9",
"p	c #A5B2B6",
"q	c #050606",
"r	c #414648",
"s	c #5A6163",
"t	c #050505",
"u	c #0C0D0E",
"v	c #778083",
"w	c #B8C6CB",
"x	c #A9B7BB",
"     .........................     ",
"   ..+++++++++++++++++++++++++..   ",
"  .+++++++++++++++++++++++++++++.  ",
" .+++++++++++++++++++++++++++++++@ ",
" .++++#$%&*=+-;>,');)++++-;>,'+++@ ",
".+++++!~{]^/'~(_:<[~}+++'~(_:<|+++@",
".+++++1~;$2+3~4+5~6~}+++3~4+5~7+++@",
".+++++890abc$bd+_~e~}+++$bd+_~f+++@",
".+++++fg8{~7h~ijklm~-no+h~ijklp+++@",
" .++++!qllrj+st~uv}~~~<++st~uv+++@ ",
" .+++++d=4++++wxd+++++++++wxd++++@ ",
"  .+++++++++++++++++++++++++++++@  ",
"   @@+++++++++++++++++++++++++@@   ",
"     @@@@@@@@@@@@@@@@@@@@@@@@@     "};
