/* XPM */
static char *dummy[]={
"20 20 382 2",
"dm c #082b35",
"dn c #0a2833",
"c8 c #0b202c",
"c9 c #0b2431",
"do c #0b272f",
"cJ c #0c131a",
"d1 c #0c181b",
"dp c #0c1e27",
"dH c #0c2634",
"dJ c #0c2737",
"d0 c #0d0d09",
"cO c #0d111a",
"d2 c #0d242e",
"dq c #0d2632",
"c4 c #0d2831",
"dK c #0d2a3b",
"cv c #0e0d13",
"c6 c #0e1823",
"d3 c #0e2b35",
"dI c #0e3743",
"cw c #0f100e",
"cL c #0f1e27",
"c5 c #0f232e",
"dr c #0f2634",
"cN c #10121a",
"dE c #101716",
"cM c #10171b",
"cK c #10181c",
"c7 c #111820",
"cP c #111e25",
"cQ c #112128",
"cR c #112b33",
"dl c #112d2f",
"ct c #121c20",
"dG c #12212b",
"cu c #131319",
"cx c #131418",
"c3 c #132728",
"cV c #152b31",
"dy c #161c22",
"cy c #162327",
"dY c #171f20",
"cW c #172c30",
"dk c #191a1d",
"cr c #191b1f",
"dx c #192120",
"dd c #192e36",
"de c #1a252b",
"dw c #1c1f1d",
"dL c #1c2a30",
"cD c #1e282f",
"cd c #21191d",
"#b c #230a05",
"#H c #230f06",
"#a c #240907",
"#1 c #240b09",
"#2 c #240d0b",
"d. c #24312f",
"#t c #250b09",
"#I c #270f09",
".V c #2e1410",
"cE c #2e2d27",
"dR c #2e3029",
"cC c #2e332d",
"dc c #2f2d23",
"dX c #2f393a",
"ai c #331c0d",
"ce c #33312b",
"dZ c #372b25",
"cF c #374045",
"cs c #37443c",
"#0 c #392318",
"c1 c #3b4a4f",
"#u c #3c2120",
"c2 c #3f4d44",
"#J c #402516",
"dS c #41463c",
"d4 c #425257",
"dF c #453f3e",
"dD c #454748",
"cc c #473a2e",
"dQ c #53533e",
"#N c #542a26",
".U c #583c1b",
"ah c #58432e",
"ds c #585246",
"d5 c #59564d",
".Q c #5d2120",
"dz c #5d583d",
".q c #5f4b45",
"cj c #61553b",
"dj c #646562",
".B c #664935",
".# c #665345",
"df c #66572f",
".p c #67564a",
"cU c #675944",
"#c c #684e41",
"Qt c #685547",
"cq c #69462d",
".W c #69533e",
".a c #695749",
".b c #69594a",
".I c #6a564d",
".r c #6a5749",
"#i c #6c5947",
".s c #6c594b",
".c c #6c5e4d",
".J c #6d5a4c",
".K c #6e5b4d",
"#C c #6f5c49",
".t c #6f5f4f",
"#U c #6f614b",
"cS c #6f634d",
".1 c #705d4f",
"#h c #705e4b",
"ab c #70644e",
"#3 c #714a32",
"dO c #715e50",
"#B c #71604c",
"#V c #71644e",
"au c #71654f",
"#j c #72604a",
".2 c #72604c",
"a5 c #73604f",
"#T c #736052",
"ac c #736650",
"cI c #74533d",
".L c #746150",
"#g c #746151",
"#z c #746153",
"#A c #74624e",
"da c #746250",
"bn c #746251",
".M c #74634f",
"aN c #74644f",
"cz c #746551",
"av c #746751",
".H c #756255",
"a7 c #75634f",
"#D c #76644e",
"aM c #766450",
"d7 c #766452",
"aO c #766751",
"at c #776455",
"du c #776456",
"a6 c #776551",
".o c #776756",
"b0 c #786555",
"aa c #786557",
"bo c #786652",
"bH c #786655",
"dt c #796755",
"bp c #7a6757",
"dN c #7a6855",
"cf c #7a6c5a",
"bX c #7b6552",
"d# c #7b6952",
"a8 c #7b6953",
"#W c #7b6a4e",
"ad c #7c6a4f",
".3 c #7c6b54",
".d c #7c6e56",
"cA c #7d6752",
"aP c #7d6950",
"aw c #7d6c50",
".P c #7e4c40",
"ch c #7e6853",
"d6 c #7e6c59",
"dP c #7e6d50",
"a9 c #7f6a4c",
"bI c #7f6d56",
".n c #7f6e5b",
"bq c #816f56",
"cT c #816f59",
"dv c #817153",
"aX c #826e55",
"## c #836d2b",
"dM c #83715d",
"#k c #837353",
".u c #837359",
"cb c #83745f",
"bG c #846e56",
"b. c #84714f",
"db c #847356",
"ci c #847359",
"bm c #856e58",
"aL c #85705a",
".0 c #85705c",
"as c #857359",
"ca c #867057",
"a4 c #86705a",
"b1 c #86755b",
"cB c #86765c",
"#S c #86795d",
"c# c #877052",
".m c #877662",
"a# c #87775c",
"c. c #885d4d",
".C c #887458",
"#E c #887957",
".l c #88795c",
"bZ c #89735c",
".G c #89775f",
"#m c #8a714b",
"#y c #8a755c",
"b4 c #8b6b4e",
"cg c #8b755d",
"#f c #8b765e",
"#X c #8b7a56",
".N c #8c795a",
"bJ c #8c7a57",
"ax c #8d7a57",
"ae c #8d7c58",
".e c #8d7c61",
"aQ c #8e7a5a",
"br c #8f7c5a",
"b2 c #90775e",
"bF c #907b63",
".Y c #917a5d",
".D c #917c5f",
".F c #917d5e",
"b3 c #927255",
"dU c #92744a",
"#G c #927e55",
"dT c #927f63",
".6 c #93623c",
".w c #937056",
"cX c #937e49",
"bY c #937e66",
".4 c #937f5c",
".E c #937f61",
".g c #945f4e",
".X c #947d59",
".Z c #956e5c",
"b5 c #957055",
"#O c #966a55",
"aA c #967855",
".k c #96815b",
"cm c #968c85",
".x c #972f3a",
"bW c #977d73",
".f c #978262",
"#l c #97845d",
"bB c #987b70",
".j c #98805a",
".v c #988161",
"#F c #98855d",
"cY c #98886a",
"aj c #99613a",
".i c #997d5a",
"#d c #9a5e54",
"bs c #9a8768",
"#v c #9b7b6c",
"ay c #9c825c",
"af c #9c835c",
"#Y c #9c835d",
"b# c #9c8458",
".h c #9d6754",
"#e c #9d695b",
"bl c #9e8263",
"aR c #9e855c",
"#R c #9f755f",
".O c #9f865b",
"#x c #a16d5b",
"a. c #a17e6e",
"aW c #a18e61",
".5 c #a28960",
"az c #a38d5a",
"aS c #a48c5c",
"ag c #a68b5b",
"cH c #a7907d",
".8 c #a8543e",
"ba c #a98c5b",
"#Z c #a98c63",
"a0 c #a98d67",
"bt c #aa9271",
"#5 c #ab6945",
"bV c #ac968b",
"aI c #aca08c",
"#Q c #ad7f6d",
"bU c #ad9687",
"bb c #ae8a5c",
"dV c #af9c84",
"aH c #b19e8d",
"#w c #b26350",
"dA c #b2924d",
"bu c #b2966c",
"#6 c #b3724b",
"#n c #b49145",
"cn c #b4a89b",
"bv c #b59f77",
"b6 c #b69d88",
"#q c #b7733f",
"aT c #b78b59",
"#s c #b89439",
"bw c #b8957b",
".R c #b94d42",
"ar c #bca388",
"a3 c #bd8f69",
"bK c #bda385",
"ck c #be815d",
"a1 c #be8b5d",
"bS c #beab9b",
"bT c #bfaba3",
"#r c #c1743e",
"bE c #c19f79",
"bA c #c1b2a3",
"#4 c #c28247",
"aK c #c2906e",
"#M c #c38f46",
"dg c #c3a36a",
"dB c #c3b7a2",
"cG c #c3bab3",
".A c #c59c4a",
"#P c #c6a48f",
"aD c #c6a88e",
"bR c #c6aa72",
"bx c #c7a287",
"cZ c #c7c4c1",
".z c #c95642",
"#K c #c99c48",
".9 c #cc7056",
"aJ c #cca280",
"bg c #cca988",
"aU c #cd8a51",
"bN c #cdbcac",
"cl c #ceaa9d",
"c0 c #cecbc9",
"#. c #d08b43",
"#L c #d09e48",
"aE c #d0ab96",
".y c #d13c3f",
".7 c #d1a44f",
"bM c #d1bdb0",
"bf c #d2aa7f",
"bD c #d2bcaa",
".S c #d46046",
"be c #d49d6d",
"bh c #d4bba2",
"bC c #d4c4b9",
"#p c #d5aa4b",
"dW c #d5d3d2",
"bd c #d7944f",
".T c #d79e44",
"aV c #d7a67b",
"aB c #d7a879",
"dC c #d7d6d6",
"bi c #d8a271",
"aZ c #d8a97c",
"di c #d8d8d8",
"al c #d9965c",
"by c #d9b28d",
"#9 c #d9b7a1",
"#7 c #da9257",
"ao c #db9c71",
"bk c #dba677",
"bL c #dbcbbb",
"b7 c #dbd8d4",
"bQ c #de9e5a",
"aG c #dea368",
"aY c #deac80",
"dh c #dedbd6",
"ap c #df995c",
"cp c #dfac73",
"bO c #dfdbce",
"#8 c #e0a072",
"bz c #e0bb96",
"co c #e0c6b1",
"aC c #e29d66",
"bj c #e3a065",
"an c #e3a667",
"aq c #e3af7d",
"b8 c #e3d1c1",
"a2 c #e4a265",
"b9 c #e4ab7e",
"#o c #e4bb46",
"ak c #e5a46a",
"bP c #e5d4b9",
"aF c #e69e5f",
"bc c #e8a263",
"am c #e8a66a",
"Qt.#.a.b.c.d.e.f.g.h.i.j.k.e.l.m.n.o.p.q",
"Qt.r.r.s.t.u.v.w.x.y.z.A.B.C.D.E.F.G.H.I",
".J.J.K.L.M.N.O.P.Q.R.S.T.U.V.W.X.Y.Z.0.1",
".s.K.r.2.3.4.5.6.7.8.9#.###a#b#c#d#e#f#g",
"#h#h#i#j#k#l#m#n#o#p#q#r#s#t#u#v#w#x#y#z",
"#A#B#C#D#E#F#G#H#I#J#K#L#M#N#O#P#Q#R#S#T",
"#A#U#V#W#X#Y#Z#0#1#2#3#4#5#6#7#8#9a.a#aa",
"#Aabacadaeafagahaiajakalamanaoapaqarasat",
"#AauavawaxayazaAaBaCaDaEaFaGaHaIaJaKaL.L",
"aMaNaOaPaQaRaSaTaUaVaWaXaYaZa0a1a2a3a4a5",
"a6a7a8a9b.b#babbbcbdbebfbgbhbibjbkblbmbn",
"bobpbqbrbsbtbubvbwbxbybzbAbBbCbDbEbFbGbH",
"a7bIbJbKbLbMbNbObPbQbRbSbTbUbVbWbXbYbZb0",
"#Ab1b2b3b4b5b6b7b8b9c.c#cacbcccdcecfcgch",
"aMcicjckclcmcncocpcqcrcsctcucvcwcxcyczcA",
"a6cBcCcDcEcFcGcHcIcJcKcLcMcNcOcPcQcRcSa6",
"cTcUcVcWcXcYcZc0c1c2c3c4c5c6c7c8c9d.d#da",
"dbdcdddedfdgdhdidjdkdldmdndodpdqdrdsdtdu",
"dvdwdxdydzdAdBdCdDdEdFdGdHdIdJdKdLdMdNdO",
"dPdQdRdSdTdUdVdWdXdYdZd0d1d2d3d4d5d6d7#T"};
