/* XPM */
static char *windowicon[] = {
/* columns rows colors chars-per-pixel */
"13 13 168 2",
"   c #0FA614591A94",
".  c #10971A181FAC",
"X  c #1B1B1DFC1DA2",
"o  c #0DC41D2826F5",
"O  c #0DC51EDB24C8",
"+  c #13E11B3B2073",
"@  c #0D79206029C8",
"#  c #0CFE27F83291",
"$  c #0E7A29CE35F1",
"%  c #11C127452D2F",
"&  c #128E242D2D0B",
"*  c #17C9285E2E50",
"=  c #1B0323102536",
"-  c #1A9A31BF3A88",
";  c #2B5E2D632C48",
":  c #229F334A3A7B",
">  c #2ED83531362F",
",  c #2E723AE93AEE",
"<  c #30C933D22E1B",
"1  c #30E4368233CD",
"2  c #3CC83D613149",
"3  c #3A65402C3CD7",
"4  c #401F42F93B84",
"5  c #4029444D3840",
"6  c #45BD2D0B1B07",
"7  c #41A0394933D8",
"8  c #474E3DB4336D",
"9  c #5F013F8C30CF",
"0  c #44BA441C3678",
"q  c #5276472C3F7F",
"w  c #531C4ED53EB4",
"e  c #5BF543223035",
"r  c #68334566247A",
"t  c #6FE34D7A2834",
"y  c #6B414BD831F4",
"u  c #7E5455912A0C",
"i  c #75385E703FE9",
"p  c #406E4A064A10",
"a  c #559D51CB49B5",
"s  c #5EEC538F465A",
"d  c #5FDF5771489F",
"f  c #6136552548F0",
"g  c #656259694751",
"h  c #67425BBB4C05",
"j  c #6A52578C495A",
"k  c #69B656044C61",
"l  c #6E005AFF4C3D",
"z  c #6F545CD64AA3",
"x  c #6E415CD64CCF",
"c  c #69685F345229",
"v  c #72A95F2D51C3",
"b  c #6F8C62585391",
"n  c #726261924C63",
"m  c #742B61CB4F38",
"M  c #742C65984ED5",
"N  c #7601668B5017",
"B  c #781266244E73",
"V  c #73E060FE521D",
"C  c #754F61CE5243",
"Z  c #750D622B533D",
"A  c #7670644F5246",
"S  c #779F6418521B",
"D  c #75E0647653FD",
"F  c #785265BF5134",
"G  c #784F652B530D",
"H  c #77856510542C",
"J  c #7A90685A51CD",
"K  c #788F6552549D",
"L  c #790466C25619",
"P  c #7A0D672855F8",
"I  c #7B76681655FB",
"U  c #7AF668E2552C",
"Y  c #7D096BE950B7",
"T  c #7D226BF15530",
"R  c #7EAA696754BE",
"E  c #806D6FB652B3",
"W  c #6E6F703B6D67",
"Q  c #7D1A72B66A67",
"!  c #7B2B7BA8799D",
"~  c #7D8E7E937B86",
"^  c #A96077443DFE",
"/  c #B2556C8E3D3B",
"(  c #B8D57D733F30",
")  c #8BC65EBD50DA",
"_  c #97FB5A4F405C",
"`  c #9B70597B4C05",
"'  c #822C63E84E18",
"]  c #86376D1C4A98",
"[  c #8A996FB24BBF",
"{  c #8204690D578E",
"}  c #815B6B2055A4",
"|  c #81CF6FEE53C1",
" . c #81746DF35962",
".. c #83F76F695A56",
"X. c #86D06C4458D3",
"o. c #85DA6F0E58A8",
"O. c #8645700A5B91",
"+. c #8EB76E6B5A3C",
"@. c #84FC717F544E",
"#. c #861871F45707",
"$. c #87FC71A5576A",
"%. c #869072FC56A3",
"&. c #86D9739E5A33",
"*. c #8A39770155AB",
"=. c #8DB871465803",
"-. c #8C6672135ACC",
";. c #8B6F75B16018",
":. c #8B8578035D8C",
">. c #8AF578CB5A65",
",. c #8AD77C3C5B06",
"<. c #902C7C63585B",
"1. c #9104636341C4",
"2. c #9A116DD35AF1",
"3. c #97E67C394C8A",
"4. c #91BA70EC50C6",
"5. c #95377F26593A",
"6. c #84F27BF56402",
"7. c #925D7B20634C",
"8. c #951E7E1669C4",
"9. c #9CA27F3E64B8",
"0. c #AFC3589646F5",
"q. c #B5BF5E304114",
"w. c #A8776F6048F2",
"e. c #A71B70754198",
"r. c #A841752C55F8",
"t. c #A9E982083FDD",
"y. c #979780B45A83",
"u. c #A4B7867E5A4E",
"i. c #AD258D706018",
"p. c #BB3382C1418D",
"a. c #BCCA8EA65F9A",
"s. c #A418821E6BE0",
"d. c #AB8087F465CD",
"f. c #AF9D8D826F7A",
"g. c #A2338DEC7209",
"h. c #A6C28EB37B18",
"j. c #AAA88E6D78A3",
"k. c #B3418BA56962",
"l. c #BBF48DA57300",
"z. c #B3C492247351",
"x. c #C68D8BFC5C3B",
"c. c #C5D795DE6360",
"v. c #C61D98876DAE",
"b. c #CFA19C816B2A",
"n. c #C3709A7373C4",
"m. c #C1C899CE7494",
"M. c #C4C49CF4752F",
"N. c #CDC69EFB73B7",
"B. c #CE1A9EAE72E3",
"V. c #D56796A9620E",
"C. c #D5E89AB3699B",
"Z. c #CA27A2A37AB2",
"A. c #D336A1147795",
"S. c #A2F994FF8853",
"D. c #A8899A7C854D",
"F. c #B09D99C68BDB",
"G. c #AFACA8469BAA",
"H. c #B810A2A4888E",
"J. c #B924A2069150",
"K. c #B9F9AE5D9823",
"L. c #C9F7A7C28747",
"P. c #CF0BA6448147",
"I. c #D088AB4283AE",
"U. c #C903AABF8B9C",
"Y. c #C33CAEEC9485",
"T. c #C139AD669C0A",
"R. c #CE0CB2299232",
"E. c #D53FBAD6A186",
/* pixels */
"j x T =.` 0.w.[ $.:. .v k ",
"l m %.4._ q./ t e ' +.{ v ",
"z B *.3.t.p.( u 9 ) 2.X.K ",
"n Y <.i 6 r ^ e.r.l.s.X.I ",
"M | 5.] y 1.x.V.C.A.z.6.U ",
"N | 5.u.a.v.n.B.M.m.k.=.K ",
"J @.y.i.c.b.Z.L.P.B.d.o.K ",
"&.g.H.Y.R.I.U.J.F.h.7.%.K ",
"%.9.j.T.E.f.R b q 7 s U R ",
"g f Q S.8.8 = +   . 1 f K ",
"5 5 6.G.~ , % o o % 4 h K ",
"< 2 ,.K.! > * # $ - a D v ",
"0 a *.D.W ; X O - p c K v "
};
