/* XPM */
static char * mute_off_xpm[] = {
"30 14 5 1",
" 	c None",
".	c #808080",
"+	c #B3B3B3",
"@	c #E6E6E6",
"#	c #000000",
"..............................",
".++++++++++++++++++++++++++++@",
".++++++++++++++++++++++++++++@",
".+++####+++++++++++++++++++++@",
".++#@@@@#++#+++#+#+#+###+###+@",
".+#@@+++.#+##+##+#+#++#++#+++@",
".+#@++++.#+#+#+#+#+#++#++###+@",
".+#@++++.#+#+#+#+#+#++#++#+++@",
".+#@+++..#+#+#+#+#+#++#++#+++@",
".++#....#++#+#+#+###++#++###+@",
".+++####+++++++++++++++++++++@",
".++++++++++++++++++++++++++++@",
".++++++++++++++++++++++++++++@",
".@@@@@@@@@@@@@@@@@@@@@@@@@@@@@"};
