/* XPM */
static char * mute_off_smooth_xpm[] = {
"30 14 71 1",
" 	c None",
".	c #828282",
"+	c #888888",
"@	c #8A8A8A",
"#	c #8C8C8C",
"$	c #929292",
"%	c #A3A3A3",
"&	c #AAAAAA",
"*	c #B1B1B1",
"=	c #CCCCCC",
"-	c #B2B2B2",
";	c #ADADAD",
">	c #9A9A9A",
",	c #959595",
"'	c #BBBBBB",
")	c #DBDBDB",
"!	c #3A3A3A",
"~	c #242424",
"{	c #252525",
"]	c #9E9E9E",
"^	c #A8A8A8",
"/	c #999999",
"(	c #B6B6B6",
"_	c #A5A5A5",
":	c #3C3C3C",
"<	c #E1E1E1",
"[	c #DDDDDD",
"}	c #D6D6D6",
"|	c #484848",
"1	c #898989",
"2	c #949494",
"3	c #4B4B4B",
"4	c #868686",
"5	c #818181",
"6	c #4F4F4F",
"7	c #4A4A4A",
"8	c #282828",
"9	c #858585",
"0	c #3B3B3B",
"a	c #373737",
"b	c #A7A7A7",
"c	c #919191",
"d	c #D8D8D8",
"e	c #C0C0C0",
"f	c #BABABA",
"g	c #6B6B6B",
"h	c #434343",
"i	c #7C7C7C",
"j	c #414141",
"k	c #767676",
"l	c #777777",
"m	c #8F8F8F",
"n	c #323232",
"o	c #646464",
"p	c #B4B4B4",
"q	c #737373",
"r	c #333333",
"s	c #363636",
"t	c #686868",
"u	c #454545",
"v	c #A4A4A4",
"w	c #717171",
"x	c #636363",
"y	c #4D4D4D",
"z	c #505050",
"A	c #444444",
"B	c #343434",
"C	c #9F9F9F",
"D	c #B3B3B3",
"E	c #C2C2C2",
"F	c #E3E3E3",
".+@@@@@@@@@@@@@@@@@@@@@@@@@@#$",
"+%&&&&&&&&&&&&&&&&&&&&&&&&&&*=",
"@&-;>,,>;-------------------')",
"@&;#!~{!#;;];-;]^]^]^>,>^/,>()",
"@_#:<[)}|1234^435656478790a6b)",
"1c!<def;ghi8jkj8l0l:m5n5mno5*)",
"1#~[ep-&qrlstutsl0l022:228n6b)",
"1#~)f-*vwrl0l0l0l0l022:22ai/()",
"1c!};&v+xhi0l0l0lsoa22:22ai/()",
"@_#|gqwxy126565650n://z//:a6b)",
"@&;1ABBA1;;]^]^]^/,/;;C;;/,>()",
"@&-;>,,>;-D---------DD-DD---')",
"#*''''''''''''''''''''''''''E[",
"$=))))))))))))))))))))))))))[F"};
