/* XPM */
static char * mute_on_xpm[] = {
"30 14 7 1",
" 	c #808080",
".	c #B3B3B3",
"+	c #E6E6E6",
"@	c #000000",
"#	c #FFFF7F",
"$	c #E6E617",
"%	c #808000",
"                              ",
" ............................+",
" ............................+",
" ...@@@@.....................+",
" ..@####@..@...@.@.@.@@@.@@@.+",
" .@##$$$%@.@@.@@.@.@..@..@...+",
" .@#$$$$%@.@.@.@.@.@..@..@@@.+",
" .@#$$$$%@.@.@.@.@.@..@..@...+",
" .@#$$$%%@.@.@.@.@.@..@..@...+",
" ..@%%%%@..@.@.@.@@@..@..@@@.+",
" ...@@@@.....................+",
" ............................+",
" ............................+",
" +++++++++++++++++++++++++++++"};
