/* XPM */
static char * mute_on_smooth_xpm[] = {
"30 14 84 1",
" 	c None",
".	c #828282",
"+	c #888888",
"@	c #8A8A8A",
"#	c #8C8C8C",
"$	c #929292",
"%	c #A3A3A3",
"&	c #AAAAAA",
"*	c #B1B1B1",
"=	c #CCCCCC",
"-	c #B2B2B2",
";	c #ADADAD",
">	c #9A9A99",
",	c #959595",
"'	c #BBBBBB",
")	c #DBDBDB",
"!	c #8D8D89",
"~	c #3A3A44",
"{	c #242433",
"]	c #3A3A43",
"^	c #9E9E9E",
"/	c #A8A8A8",
"(	c #9A9A9A",
"_	c #999999",
":	c #B6B6B6",
"<	c #A5A5A5",
"[	c #3C3C4D",
"}	c #FAFA5E",
"|	c #FAFA5B",
"1	c #F9F958",
"2	c #F2F24F",
"3	c #45453C",
"4	c #898985",
"5	c #949494",
"6	c #4B4B4B",
"7	c #868686",
"8	c #818181",
"9	c #4F4F4F",
"0	c #4A4A4A",
"a	c #282828",
"b	c #858585",
"c	c #3B3B3B",
"d	c #373737",
"e	c #A7A7A7",
"f	c #898989",
"g	c #919191",
"h	c #F8F860",
"i	c #ECEC33",
"j	c #E9E928",
"k	c #DADA21",
"l	c #73730C",
"m	c #434331",
"n	c #7C7C7B",
"o	c #414141",
"p	c #767676",
"q	c #777777",
"r	c #3C3C3C",
"s	c #8F8F8F",
"t	c #323232",
"u	c #646464",
"v	c #8D8D8C",
"w	c #E6E61A",
"x	c #E5E517",
"y	c #D4D413",
"z	c #7B7B04",
"A	c #33331E",
"B	c #363636",
"C	c #686868",
"D	c #454545",
"E	c #E2E216",
"F	c #C9C910",
"G	c #797903",
"H	c #7C7C7C",
"I	c #959505",
"J	c #646406",
"K	c #4D4D2D",
"L	c #505050",
"M	c #898986",
"N	c #444432",
"O	c #9F9F9F",
"P	c #B3B3B3",
"Q	c #C2C2C2",
"R	c #DDDDDD",
"S	c #E3E3E3",
".+@@@@@@@@@@@@@@@@@@@@@@@@@@#$",
"+%&&&&&&&&&&&&&&&&&&&&&&&&&&*=",
"@&-;>,,>;-------------------')",
"@&;!~{{]!;;^;-;^/^/^/(,(/_,(:)",
"@<![}|1234567/76898970a0bcd9e)",
"fg]}hijklmnaopoaqcqrs8t8stu8*)",
"fv{|iwxyzAqBCDCBqcqc55r55at9e)",
"fv{1jxEFGAqcqcqcqcqc55r55dH_:)",
"fg]2kyFIJmHcqcqcqBud55r55dH_:)",
"@<!3lzGJK45989898ctr__L__rd9e)",
"@&;MNAAN4;;^/^/^/_,_;;O;;_,(:)",
"@&-;>,,>;-P---------PP-PP---')",
"#*''''''''''''''''''''''''''QR",
"$=))))))))))))))))))))))))))RS"};
