/* XPM */
static char * rec_on_xpm[] = {
"30 14 8 1",
" 	c None",
".	c #808080",
"+	c #B3B3B3",
"@	c #E6E6E6",
"#	c #000000",
"$	c #FF8080",
"%	c #FF0000",
"&	c #800000",
"..............................",
".++++++++++++++++++++++++++++@",
".++++++++++++++++++++++++++++@",
".+++####+++++++++++++++++++++@",
".++#$$$$#++###+++####++###+++@",
".+#$$%%%&#+#++#++#++++#+++#++@",
".+#$%%%%&#+#++#++###++#++++++@",
".+#$%%%%&#+###+++#++++#++++++@",
".+#$%%%&&#+#++#++#++++#+++#++@",
".++#&&&&#++#++#++####++###+++@",
".+++####+++++++++++++++++++++@",
".++++++++++++++++++++++++++++@",
".++++++++++++++++++++++++++++@",
".@@@@@@@@@@@@@@@@@@@@@@@@@@@@@"};
