/* XPM */
static char * rec_off_smooth_xpm[] = {
"30 14 68 1",
" 	c None",
".	c #828282",
"+	c #888888",
"@	c #8A8A8A",
"#	c #8C8C8C",
"$	c #929292",
"%	c #A3A3A3",
"&	c #AAAAAA",
"*	c #B1B1B1",
"=	c #CCCCCC",
"-	c #B2B2B2",
";	c #ADADAD",
">	c #9A9A9A",
",	c #959595",
"'	c #BBBBBB",
")	c #DBDBDB",
"!	c #3A3A3A",
"~	c #242424",
"{	c #252525",
"]	c #999999",
"^	c #A5A5A5",
"/	c #3C3C3C",
"(	c #E1E1E1",
"_	c #DDDDDD",
":	c #D6D6D6",
"<	c #484848",
"[	c #898989",
"}	c #949494",
"|	c #373737",
"1	c #4B4B4B",
"2	c #8B8B8B",
"3	c #505050",
"4	c #919191",
"5	c #D8D8D8",
"6	c #C0C0C0",
"7	c #BABABA",
"8	c #6B6B6B",
"9	c #434343",
"0	c #7C7C7C",
"a	c #7B7B7B",
"b	c #808080",
"c	c #323232",
"d	c #646464",
"e	c #818181",
"f	c #868686",
"g	c #5F5F5F",
"h	c #9F9F9F",
"i	c #B4B4B4",
"j	c #737373",
"k	c #333333",
"l	c #777777",
"m	c #363636",
"n	c #282828",
"o	c #4F4F4F",
"p	c #9E9E9E",
"q	c #AEAEAE",
"r	c #A4A4A4",
"s	c #717171",
"t	c #272727",
"u	c #464646",
"v	c #A8A8A8",
"w	c #636363",
"x	c #4D4D4D",
"y	c #444444",
"z	c #343434",
"A	c #B3B3B3",
"B	c #C2C2C2",
"C	c #E3E3E3",
".+@@@@@@@@@@@@@@@@@@@@@@@@@@#$",
"+%&&&&&&&&&&&&&&&&&&&&&&&&&&*=",
"@&-;>,,>;-------------------')",
"@&;#!~{!#;;],>;-;],,>;;>,>;-')",
"@^#/(_):<[}/|12;]/|/3]@1/12;')",
"[4!(567;890|ab1]}cd0},1e}fgh')",
"[#~_6i-&jklmab1]}ncop}/}*;pq')",
"[#~)7-*rskltculv,|0];,/}*;pq')",
"[4!:;&r+w90|0e1]}|0}],1e}fgh')",
"@^#<8jswx[}3]]3]]/|/3]@1/12;')",
"@&;[yzzy[;;h;;h;;],,>;;>,>;-')",
"@&-;>,,>;-A-AA-AA----AA---AA')",
"#*''''''''''''''''''''''''''B_",
"$=))))))))))))))))))))))))))_C"};
