/* XPM */
static char * rec_on_smooth_xpm[] = {
"30 14 81 1",
" 	c None",
".	c #828282",
"+	c #888888",
"@	c #8A8A8A",
"#	c #8C8C8C",
"$	c #929292",
"%	c #A3A3A3",
"&	c #AAAAAA",
"*	c #B1B1B1",
"=	c #CCCCCC",
"-	c #B2B2B2",
";	c #ADADAD",
">	c #9A9999",
",	c #959595",
"'	c #BBBBBB",
")	c #DBDBDB",
"!	c #8D8989",
"~	c #3A4444",
"{	c #243333",
"]	c #3A4343",
"^	c #999999",
"/	c #9A9A9A",
"(	c #A5A5A5",
"_	c #3C4D4D",
":	c #FB5D5D",
"<	c #FE5858",
"[	c #FE5555",
"}	c #F74C4C",
"|	c #453B3B",
"1	c #898585",
"2	c #949494",
"3	c #3C3C3C",
"4	c #373737",
"5	c #4B4B4B",
"6	c #8B8B8B",
"7	c #505050",
"8	c #898989",
"9	c #919191",
"0	c #FE5B5B",
"a	c #FE2323",
"b	c #FE1515",
"c	c #EC1111",
"d	c #770909",
"e	c #433131",
"f	c #7C7C7C",
"g	c #7B7B7B",
"h	c #808080",
"i	c #323232",
"j	c #646464",
"k	c #818181",
"l	c #868686",
"m	c #5F5F5F",
"n	c #9F9F9F",
"o	c #8D8C8C",
"p	c #FE0404",
"q	c #FE0000",
"r	c #E90000",
"s	c #800000",
"t	c #331E1E",
"u	c #777777",
"v	c #363636",
"w	c #282828",
"x	c #4F4F4F",
"y	c #9E9E9E",
"z	c #AEAEAE",
"A	c #FA0000",
"B	c #DB0000",
"C	c #7C0000",
"D	c #777676",
"E	c #272727",
"F	c #464646",
"G	c #A8A8A8",
"H	c #9B0000",
"I	c #650505",
"J	c #4D2D2D",
"K	c #898686",
"L	c #443232",
"M	c #B3B3B3",
"N	c #C2C2C2",
"O	c #DDDDDD",
"P	c #E3E3E3",
".+@@@@@@@@@@@@@@@@@@@@@@@@@@#$",
"+%&&&&&&&&&&&&&&&&&&&&&&&&&&*=",
"@&-;>,,>;-------------------')",
"@&;!~{{]!;;^,/;-;^,,/;;/,/;-')",
"@(!_:<[}|123456;^3437^@5356;')",
"89~:0abcdef4gh5^2ijf2,5k2lmn')",
"8o{<apqrstuvgh5^2wixy232*;yz')",
"8o{[bqABCtDEiFuG,4f^;,32*;yz')",
"89]}crBHIef4fk5^24f2^,5k2lmn')",
"@(!|dsCIJ127^^7^^3437^@5356;')",
"@&;KLttL1;;n;;n;;^,,/;;/,/;-')",
"@&-;>,,>;-M-MM-MM----MM---MM')",
"#*''''''''''''''''''''''''''NO",
"$=))))))))))))))))))))))))))OP"};
