/* XPM */
static char * solo_off_smooth_xpm[] = {
"30 14 66 1",
" 	c None",
".	c #828282",
"+	c #888888",
"@	c #8A8A8A",
"#	c #8C8C8C",
"$	c #929292",
"%	c #A3A3A3",
"&	c #AAAAAA",
"*	c #B1B1B1",
"=	c #CCCCCC",
"-	c #B2B2B2",
";	c #ADADAD",
">	c #9A9A9A",
",	c #959595",
"'	c #BBBBBB",
")	c #DBDBDB",
"!	c #3A3A3A",
"~	c #242424",
"{	c #252525",
"]	c #9F9F9F",
"^	c #A5A5A5",
"/	c #3C3C3C",
"(	c #E1E1E1",
"_	c #DDDDDD",
":	c #D6D6D6",
"<	c #484848",
"[	c #898989",
"}	c #A8A8A8",
"|	c #4B4B4B",
"1	c #8B8B8B",
"2	c #949494",
"3	c #505050",
"4	c #B6B6B6",
"5	c #919191",
"6	c #D8D8D8",
"7	c #C0C0C0",
"8	c #BABABA",
"9	c #6B6B6B",
"0	c #434343",
"a	c #818181",
"b	c #464646",
"c	c #6D6D6D",
"d	c #808080",
"e	c #5E5E5E",
"f	c #868686",
"g	c #4A4A4A",
"h	c #7C7C7C",
"i	c #999999",
"j	c #A2A2A2",
"k	c #B4B4B4",
"l	c #737373",
"m	c #333333",
"n	c #858585",
"o	c #777777",
"p	c #3B3B3B",
"q	c #9D9D9D",
"r	c #A4A4A4",
"s	c #717171",
"t	c #636363",
"u	c #373737",
"v	c #4D4D4D",
"w	c #444444",
"x	c #343434",
"y	c #B3B3B3",
"z	c #C2C2C2",
"A	c #E3E3E3",
".+@@@@@@@@@@@@@@@@@@@@@@@@@@#$",
"+%&&&&&&&&&&&&&&&&&&&&&&&&&&*=",
"@&-;>,,>;-------------------')",
"@&;#!~{!#;-;>>;-;>>;;];-;>>;')",
"@^#/(_):<[}@||1}@||@23>;1||14)",
"[5!(678;90abcdef|aagh/2i|aa|j)",
"[#~_7k-&lmh/bdn1/22/op22/22/q)",
"[#~)8-*rsm1ndb/h/22/op22/22/q)",
"[5!:;&r+t0fedcbagaaghuhabaa|j)",
"@^#<9lstv[}1||@}@||@2/ugo||14)",
"@&;[wxxw[;-;>>;-;>>;;i,>}>>;')",
"@&-;>,,>;-yy--yyy--yy------y')",
"#*''''''''''''''''''''''''''z_",
"$=))))))))))))))))))))))))))_A"};
