/* XPM */
static char * solo_on_smooth_xpm[] = {
"30 14 83 1",
" 	c None",
".	c #828282",
"+	c #888888",
"@	c #8A8A8A",
"#	c #8C8C8C",
"$	c #929292",
"%	c #A3A3A3",
"&	c #AAAAAA",
"*	c #B1B1B1",
"=	c #CCCCCC",
"-	c #B2B2B2",
";	c #ADADAD",
">	c #999A99",
",	c #959595",
"'	c #BBBBBB",
")	c #DBDBDB",
"!	c #898D89",
"~	c #443A44",
"{	c #332433",
"]	c #433A43",
"^	c #9A9A9A",
"/	c #9F9F9F",
"(	c #A5A5A5",
"_	c #4D3C4D",
":	c #5DFB5D",
"<	c #58FE58",
"[	c #54FE54",
"}	c #4BF84B",
"|	c #3B4B3B",
"1	c #858B85",
"2	c #A8A8A8",
"3	c #4B4B4B",
"4	c #8B8B8B",
"5	c #949494",
"6	c #505050",
"7	c #B6B6B6",
"8	c #898989",
"9	c #919191",
"0	c #5BFE5B",
"a	c #23FE23",
"b	c #15FE15",
"c	c #11F411",
"d	c #099309",
"e	c #314A31",
"f	c #818181",
"g	c #464646",
"h	c #6D6D6D",
"i	c #808080",
"j	c #5E5E5E",
"k	c #868686",
"l	c #4A4A4A",
"m	c #7C7C7C",
"n	c #3C3C3C",
"o	c #999999",
"p	c #A2A2A2",
"q	c #8C8D8C",
"r	c #04FE04",
"s	c #00FE00",
"t	c #00F200",
"u	c #00A100",
"v	c #1E3B1E",
"w	c #7B7C7B",
"x	c #858585",
"y	c #777777",
"z	c #3B3B3B",
"A	c #9D9D9D",
"B	c #00FC00",
"C	c #00E900",
"D	c #009F00",
"E	c #1E3C1E",
"F	c #8A8B8A",
"G	c #00C000",
"H	c #058805",
"I	c #314B31",
"J	c #858685",
"K	c #373737",
"L	c #2D5A2D",
"M	c #868B86",
"N	c #324B32",
"O	c #B3B3B3",
"P	c #C2C2C2",
"Q	c #DDDDDD",
"R	c #E3E3E3",
".+@@@@@@@@@@@@@@@@@@@@@@@@@@#$",
"+%&&&&&&&&&&&&&&&&&&&&&&&&&&*=",
"@&-;>,,>;-------------------')",
"@&;!~{{]!;-;^^;-;^^;;/;-;^^;')",
"@(!_:<[}|12@3342@33@56^;43347)",
"89]:0abcdefghijk3fflmn5o3ff3p)",
"8q{<arstuvwngix4n55nyz55n55nA)",
"8q{[bsBCDEFxignmn55nyz55n55nA)",
"89]}ctCGHIJjihgflfflmKmfgff3p)",
"@(!|duDHL12433@2@33@5nKly3347)",
"@&;MNEEN1;-;^^;-;^^;;o,^2^^;')",
"@&-;>,,>;-OO--OOO--OO------O')",
"#*''''''''''''''''''''''''''PQ",
"$=))))))))))))))))))))))))))QR"};
